<?xml version="1.0" encoding="UTF-8" standalone="no"?>
<!DOCTYPE svg PUBLIC "-//W3C//DTD SVG 1.0//EN" "http://www.w3.org/TR/2001/REC-SVG-20010904/DTD/svg10.dtd">
<!-- Generato da Microsoft Visio 11.0, SVG Export, v1.0 nosql_issue.svg Pagina 1 -->
<svg xmlns="http://www.w3.org/2000/svg" xmlns:v="http://schemas.microsoft.com/visio/2003/SVGExtensions/" width="3.95701in"
		height="4.11449in" viewBox="0 0 284.905 296.243" xml:space="preserve" color-interpolation-filters="sRGB" class="st14">
	<v:documentProperties v:langID="1040" v:metric="true" v:viewMarkup="false">
		<v:userDefs>
			<v:ud v:nameU="MBSAAddinOutlineVisible" v:prompt="" v:val="VT0(1):26"/>
		</v:userDefs>
	</v:documentProperties>

	<style type="text/css">
	<![CDATA[
		.st1 {fill:#ffffff;stroke:none;stroke-linecap:round;stroke-linejoin:round;stroke-width:0.72}
		.st2 {fill:#3475cd;stroke:#000000;stroke-linecap:round;stroke-linejoin:round;stroke-width:0.72}
		.st3 {fill:none;stroke:none;stroke-linecap:round;stroke-linejoin:round;stroke-width:0.72}
		.st4 {fill:#000000;font-family:Arial;font-size:1.5em}
		.st5 {fill:#ffffff;stroke:none;stroke-linecap:butt;stroke-width:0.75}
		.st6 {fill:#ffc000;stroke:none;stroke-linecap:butt;stroke-width:0.75}
		.st7 {fill:#000000;font-family:Arial;font-size:0.666664em;font-weight:bold}
		.st8 {stroke:#000000;stroke-dasharray:0.72,1.44;stroke-linecap:round;stroke-linejoin:round;stroke-width:0.72}
		.st9 {fill:#facca7;stroke:#000000;stroke-linecap:round;stroke-linejoin:round;stroke-width:0.72}
		.st10 {fill:#000000;font-family:Arial;font-size:0.666664em}
		.st11 {stroke:#000000;stroke-linecap:round;stroke-linejoin:round;stroke-width:0.72}
		.st12 {fill:#b5cb85;stroke:#000000;stroke-linecap:round;stroke-linejoin:round;stroke-width:0.24}
		.st13 {fill:#d9680d;stroke:#000000;stroke-linecap:round;stroke-linejoin:round;stroke-width:0.72}
		.st14 {fill:none;fill-rule:evenodd;font-size:12;overflow:visible;stroke-linecap:square;stroke-miterlimit:3}
	]]>
	</style>

	<g v:mID="0" v:index="1" v:groupContext="foregroundPage">
		<title>Pagina 1</title>
		<v:pageProperties v:drawingScale="0.0393701" v:pageScale="0.0393701" v:drawingUnits="24" v:shadowOffsetX="8.50394"
				v:shadowOffsetY="-8.50394"/>
		<v:layer v:name="symbols" v:index="0"/>
		<v:layer v:name="Diagramma di flusso" v:index="1"/>
		<g id="shape5-1" v:mID="5" v:groupContext="shape" transform="translate(0.72,-0.72)">
			<title>Foglio.5</title>
			<rect x="0" y="1.44" width="283.465" height="294.803" class="st1"/>
		</g>
		<g id="shape1-3" v:mID="1" v:groupContext="shape" transform="translate(88.594,-218.988)">
			<title>Foglio.1</title>
			<rect x="0" y="231.046" width="116.22" height="65.1969" rx="8.50394" ry="8.50394" class="st2"/>
		</g>
		<g id="shape3-5" v:mID="3" v:groupContext="shape" transform="translate(88.594,-244.5)">
			<title>Foglio.3</title>
			<desc>DAO</desc>
			<v:textBlock v:margins="rect(4,4,4,4)" v:tabSpace="42.5197"/>
			<v:textRect cx="51.0236" cy="284.905" width="102.05" height="22.6772"/>
			<rect x="0" y="273.566" width="102.047" height="22.6772" class="st3"/>
			<text x="31.52" y="290.3" class="st4" v:langID="1040"><v:paragraph v:horizAlign="1"/><v:tabList/>DAO</text>		</g>
		<g id="group2-8" transform="translate(108.437,-25.811)" v:mID="2" v:groupContext="group" v:layerMember="0">
			<title>Database, mini 3 - blue</title>
			<g id="group4-9" v:mID="4" v:groupContext="group" v:layerMember="0">
				<title>Foglio.4</title>
				<g id="shape6-10" v:mID="6" v:groupContext="shape" v:layerMember="0">
					<title>Foglio.6</title>
					<path d="M76.6 233.2 L76.6 231.36 C76.6 224.65 57.38 221.7 38.3 221.7 C19.22 221.7 0 224.65 0 231.36 L0 233.2
								 L0 283.45 L0 285.38 L0 285.48 C1.3 294.86 24.57 296.24 38.3 296.24 C52.03 296.24 75.3 294.86 76.6
								 285.48 L76.6 285.38 L76.6 283.36 L76.6 233.2 Z" class="st5"/>
				</g>
				<g id="shape7-12" v:mID="7" v:groupContext="shape" v:layerMember="0" transform="translate(4.33587,-2.76083)">
					<title>Foglio.7</title>
					<path d="M33.96 280.6 C20.38 280.6 6.79 279.13 0 275.81 L0 286.12 L0 287.96 C1.01 295.6 25.44 296.24 33.96 296.24
								 C42.49 296.24 66.77 295.6 67.93 287.96 L67.93 286.12 L67.93 275.81 C61.14 279.03 47.55 280.6 33.96
								 280.6 Z" class="st6"/>
				</g>
				<g id="shape8-14" v:mID="8" v:groupContext="shape" v:layerMember="0" transform="translate(4.33587,-21.1664)">
					<title>Foglio.8</title>
					<path d="M33.96 280.6 C20.38 280.6 6.79 279.13 0 275.81 L0 286.12 L0 287.96 C1.01 295.6 25.44 296.24 33.96 296.24
								 C42.49 296.24 66.77 295.6 67.93 287.96 L67.93 286.12 L67.93 275.81 C61.14 279.03 47.55 280.6 33.96
								 280.6 Z" class="st6"/>
				</g>
				<g id="shape9-16" v:mID="9" v:groupContext="shape" v:layerMember="0" transform="translate(4.33587,-39.5719)">
					<title>Foglio.9</title>
					<path d="M33.96 280.6 C20.38 280.6 6.79 279.13 0 275.81 L0 286.12 L0 287.96 C1.01 295.6 25.44 296.24 33.96 296.24
								 C42.49 296.24 66.77 295.6 67.93 287.96 L67.93 286.12 L67.93 275.81 C61.14 279.03 47.55 280.6 33.96
								 280.6 Z" class="st6"/>
				</g>
				<g id="shape11-18" v:mID="11" v:groupContext="shape" v:layerMember="0" transform="translate(4.33587,-57.9775)">
					<title>Foglio.11</title>
					<ellipse cx="33.9643" cy="289.341" rx="33.9643" ry="6.90208" class="st6"/>
				</g>
			</g>
		</g>
		<g id="shape12-20" v:mID="12" v:groupContext="shape" transform="translate(104.185,-8.80311)">
			<title>Foglio.12</title>
			<desc>Data Tier</desc>
			<v:textBlock v:margins="rect(4,4,4,4)" v:tabSpace="42.5197"/>
			<v:textRect cx="38.2677" cy="284.905" width="76.54" height="22.6772"/>
			<rect x="0" y="273.566" width="76.5354" height="22.6772" class="st3"/>
			<text x="21.15" y="287.3" class="st7" v:langID="1040"><v:paragraph v:horizAlign="1"/><v:tabList/>Data Tier</text>		</g>
		<g id="shape25-23" v:mID="25" v:groupContext="shape" transform="translate(117.101,387.736) rotate(-154.093)">
			<title>Foglio.25</title>
			<path d="M0 291.59 C5.13 291.89 10.78 294.65 16.18 295.71 C28.29 298.08 39.2 291.93 49.71 290.14 C69.45 286.78 87.79
						 298.82 110.3 291.59" class="st8"/>
		</g>
		<g id="shape24-26" v:mID="24" v:groupContext="shape" transform="translate(441.53,77.2554) rotate(90)">
			<title>Foglio.24</title>
			<path d="M0 296.24 C15.17 295.57 33.45 291.42 48.19 296.24" class="st8"/>
		</g>
		<g id="shape26-29" v:mID="26" v:groupContext="shape" transform="translate(276.401,339.484) rotate(153.435)">
			<title>Foglio.26</title>
			<path d="M0 293.18 C1.89 293.66 3.89 293.54 5.83 293.56 C13.36 293.64 19.82 295.86 26.37 296.22 C32.91 296.59 39.55 295.1
						 46.14 294.7 C51.21 294.4 56.24 294.73 61.36 294.7 C67.25 294.66 73.24 294.13 78.98 294.32 C89.49 294.66
						 99.12 297.42 107.75 293.18" class="st8"/>
		</g>
		<g id="shape13-32" v:mID="13" v:groupContext="shape" transform="translate(14.8932,-128.279)">
			<title>Foglio.13</title>
			<ellipse cx="29.7638" cy="274.983" rx="29.7638" ry="21.2598" class="st9"/>
		</g>
		<g id="shape14-34" v:mID="14" v:groupContext="shape" transform="translate(14.8932,-139.618)">
			<title>Foglio.14</title>
			<desc>API</desc>
			<v:textBlock v:margins="rect(4,4,4,4)" v:tabSpace="42.5197"/>
			<v:textRect cx="24.76" cy="284.905" width="49.53" height="22.6772"/>
			<rect x="0" y="273.566" width="49.5201" height="22.6772" class="st3"/>
			<text x="18.31" y="287.3" class="st10" v:langID="1040"><v:paragraph v:horizAlign="1"/><v:tabList/>API</text>		</g>
		<g id="shape15-37" v:mID="15" v:groupContext="shape" transform="translate(175.419,-118.771) rotate(31.4515)">
			<title>Foglio.15</title>
			<path d="M0 296.24 L52.89 296.24" class="st11"/>
		</g>
		<g id="shape16-40" v:mID="16" v:groupContext="shape" transform="translate(-88.6056,-120.857) rotate(-31.4515) scale(-1,1)">
			<title>Foglio.16</title>
			<path d="M0 296.24 L52.89 296.24" class="st11"/>
		</g>
		<g id="shape17-43" v:mID="17" v:groupContext="shape" v:layerMember="1" transform="translate(115.118,-135.937)">
			<title>Documento</title>
			<v:custProps>
				<v:cp v:nameU="Cost" v:lbl="Costo" v:type="7" v:format="@" v:langID="1040"/>
				<v:cp v:nameU="Duration" v:lbl="Durata" v:type="2" v:langID="1040"/>
				<v:cp v:nameU="Resources" v:lbl="Risorse" v:langID="1040"/>
			</v:custProps>
			<v:userDefs>
				<v:ud v:nameU="visVersion" v:val="VT0(12):26"/>
			</v:userDefs>
			<path d="M0 291.89 L0 261.38 L55.68 261.38 L55.68 291.89 A24.4117 24.4117 -180 0 0 27.84 291.89 A24.4117 24.4117 0 0
						 1 -0 291.89 Z" class="st12"/>
		</g>
		<g id="shape18-45" v:mID="18" v:groupContext="shape" v:layerMember="1" transform="translate(111.777,-132.451)">
			<title>Documento.36</title>
			<v:custProps>
				<v:cp v:nameU="Cost" v:lbl="Costo" v:type="7" v:format="@" v:langID="1040"/>
				<v:cp v:nameU="Duration" v:lbl="Durata" v:type="2" v:langID="1040"/>
				<v:cp v:nameU="Resources" v:lbl="Risorse" v:langID="1040"/>
			</v:custProps>
			<v:userDefs>
				<v:ud v:nameU="visVersion" v:val="VT0(12):26"/>
			</v:userDefs>
			<path d="M0 291.89 L0 261.38 L55.68 261.38 L55.68 291.89 A24.4117 24.4117 -180 0 0 27.84 291.89 A24.4117 24.4117 0 0
						 1 -0 291.89 Z" class="st12"/>
		</g>
		<g id="shape19-47" v:mID="19" v:groupContext="shape" v:layerMember="1" transform="translate(108.437,-128.964)">
			<title>Documento.37</title>
			<v:custProps>
				<v:cp v:nameU="Cost" v:lbl="Costo" v:type="7" v:format="@" v:langID="1040"/>
				<v:cp v:nameU="Duration" v:lbl="Durata" v:type="2" v:langID="1040"/>
				<v:cp v:nameU="Resources" v:lbl="Risorse" v:langID="1040"/>
			</v:custProps>
			<v:userDefs>
				<v:ud v:nameU="visVersion" v:val="VT0(12):26"/>
			</v:userDefs>
			<path d="M0 291.89 L0 261.38 L55.68 261.38 L55.68 291.89 A24.4117 24.4117 -180 0 0 27.84 291.89 A24.4117 24.4117 0 0
						 1 -0 291.89 Z" class="st12"/>
		</g>
		<g id="shape20-49" v:mID="20" v:groupContext="shape" transform="translate(107.236,-143.08)">
			<title>Foglio.20</title>
			<desc>API</desc>
			<v:textBlock v:margins="rect(4,4,4,4)" v:tabSpace="42.5197"/>
			<v:textRect cx="27.5293" cy="287.71" width="55.06" height="17.0653"/>
			<rect x="0" y="279.178" width="55.0586" height="17.0653" class="st3"/>
			<text x="21.08" y="290.11" class="st10" v:langID="1040"><v:paragraph v:horizAlign="1"/><v:tabList/>API</text>		</g>
		<g id="shape10-52" v:mID="10" v:groupContext="shape" transform="translate(213.984,-129.696)">
			<title>Foglio.10</title>
			<path d="M0 267.9 L14.17 253.72 L42.52 253.72 L56.69 267.9 L56.69 282.07 L42.52 296.24 L14.17 296.24 L0 282.07 L0 267.9
						 Z" class="st13"/>
		</g>
		<g id="shape22-54" v:mID="22" v:groupContext="shape" transform="translate(212.653,-139.618)">
			<title>Foglio.22</title>
			<desc>API</desc>
			<v:textBlock v:margins="rect(4,4,4,4)" v:tabSpace="42.5197"/>
			<v:textRect cx="24.76" cy="284.905" width="49.53" height="22.6772"/>
			<rect x="0" y="273.566" width="49.5201" height="22.6772" class="st3"/>
			<text x="18.31" y="287.3" class="st10" v:langID="1040"><v:paragraph v:horizAlign="1"/><v:tabList/>API</text>		</g>
	</g>
</svg>
